<?xml version="1.0" encoding="iso-8859-1"?>
<!-- Uploaded to: SVG Repo, www.svgrepo.com, Generator: SVG Repo Mixer Tools -->
<svg fill="#000000" height="800px" width="800px" version="1.1" id="Layer_1" xmlns="http://www.w3.org/2000/svg" xmlns:xlink="http://www.w3.org/1999/xlink" 
	 viewBox="0 0 512 512" xml:space="preserve">
<g>
	<g>
		<path d="M501.893,212.551c-6.514-6.535-15.189-10.133-24.424-10.133h-28.172v-21.825h32.542c6.575,0,11.907-5.331,11.907-11.907
			c0-6.576-5.332-11.907-11.907-11.907h-34.364c-7.248-31.256-35.403-54.391-68.441-54.391h-89.29V70.644h19.242
			c6.575,0,11.907-5.331,11.907-11.907s-5.332-11.907-11.907-11.907H203.014c-6.575,0-11.907,5.331-11.907,11.907
			s5.332,11.907,11.907,11.907h19.242v31.744h-89.29c-33.026,0-61.172,23.119-68.435,54.391H30.172
			c-6.575,0-11.907,5.331-11.907,11.907s5.332,11.907,11.907,11.907h32.53v21.825H34.53c-19.039,0-34.53,15.49-34.53,34.53
			c0,9.235,3.598,17.909,10.107,24.397c6.514,6.535,15.189,10.133,24.424,10.133h28.172v161.137
			c0,17.95,14.604,32.554,32.554,32.554h321.488c17.95,0,32.554-14.604,32.554-32.554V271.479h28.172
			c19.039,0,34.53-15.49,34.53-34.53C512,227.714,508.402,219.04,501.893,212.551z M62.702,247.665H34.53
			c-2.86,0-5.545-1.112-7.584-3.158c-2.019-2.013-3.133-4.698-3.133-7.559c0-5.909,4.807-10.716,10.716-10.716h28.172V247.665z
			 M246.07,70.644h19.861v31.744H246.07V70.644z M425.484,214.326v45.247v173.044c0,4.819-3.921,8.74-8.74,8.74H95.256
			c-4.819,0-8.74-3.921-8.74-8.74V259.572v-45.247v-33.732H334.19c6.575,0,11.907-5.331,11.907-11.907
			c0-6.576-5.332-11.907-11.907-11.907H89.308c6.526-17.882,23.752-30.577,43.657-30.577h101.197h43.675h101.197
			c19.914,0,37.147,12.707,43.664,30.577h-17.067c-6.575,0-11.907,5.331-11.907,11.907c0,6.576,5.332,11.907,11.907,11.907h19.852
			V214.326z M477.47,247.665h-28.172v-21.433h28.172c2.86,0,5.545,1.112,7.583,3.158c2.019,2.013,3.133,4.698,3.133,7.559
			C488.186,242.858,483.379,247.665,477.47,247.665z"/>
	</g>
</g>
<g>
	<g>
		<path d="M373.483,156.779h-5.159c-6.575,0-11.907,5.331-11.907,11.907c0,6.576,5.332,11.907,11.907,11.907h5.159
			c6.575,0,11.907-5.331,11.907-11.907C385.39,162.11,380.058,156.779,373.483,156.779z"/>
	</g>
</g>
</svg>