<svg width="88" height="99" viewBox="0 0 88 99" fill="none" xmlns="http://www.w3.org/2000/svg">
<path d="M86.7306 73.5618L44.0298 0L1.32898 73.5618L7.24891 78.017L44.0298 24.0968L80.8107 78.017L86.7306 73.5618Z" fill="url(#paint0_linear_4_88)"/>
<path d="M65.543 69.3812L42.5956 35.9366H45.464L22.5167 69.3812L42.5956 34.1464L44.0298 31.6238L45.464 34.1464L65.543 69.3812Z" fill="#CACACA"/>
<path d="M46.0031 85.8899H54.4558V77.4372H46.0031V85.8899Z" fill="#44454E"/>
<path d="M33.6038 85.8899H42.0565V77.4372H33.6038V85.8899Z" fill="#44454E"/>
<path d="M46.0031 73.277H54.4558V64.8243H46.0031V73.277Z" fill="#44454E"/>
<path d="M33.6038 73.277H42.0565V64.8243H33.6038V73.277Z" fill="#44454E"/>
<path d="M0.149063 93.2542L87.9207 93.061L0.149063 98.1163V93.2542Z" fill="#B31110"/>
<defs>
<linearGradient id="paint0_linear_4_88" x1="1.32898" y1="39.0085" x2="86.7306" y2="39.0085" gradientUnits="userSpaceOnUse">
<stop offset="0.33" stop-color="#10486A"/>
<stop offset="0.64" stop-color="#B31110"/>
</linearGradient>
</defs>
</svg>
